# xmcd
#
# Track frame offsets:
#	150
#	28529
#	50736
#	77614
#	120245
#	147763
#	183808
#	215248
#	258453
#	286731
#
# Disc length: 4420 seconds
#
# Revision: 4
# Processed by: cddbd v1.5.2PL0 Copyright (c) Steve Scherf et al.
# Submitted via: audiograbber 1.83.01
#
DISCID=8811420a
DTITLE=Sonny Rollins - Work Time - Volume 1
DYEAR=1956
DGENRE=Jazz
TTITLE0=There´s No Business Like Show Business
TTITLE1=Paradox
TTITLE2=Raincheck
TTITLE3=There Are Such Things
TTITLE4=It´s All Right With Me
TTITLE5=Decision
TTITLE6=Bluesnote
TTITLE7=Plain Jane
TTITLE8=Sonnysphere
TTITLE9=How Are The Things In Glocca Mora
EXTD=YEAR: 1956
EXTT0=
EXTT1=
EXTT2=
EXTT3=
EXTT4=
EXTT5=
EXTT6=
EXTT7=
EXTT8=
EXTT9=
PLAYORDER=
